
<svg width="205" height="99" viewBox="0 0 205 99" fill="none" xmlns="http://www.w3.org/2000/svg">
    <g filter="url(#filter0_d_3613_515)">
        <path fill-rule="evenodd" clip-rule="evenodd" d="M28.5742 44.0416C28.5742 55.8934 37.8854 65.5011 49.3714 65.5011C60.8574 65.5011 70.1686 55.8934 70.1686 44.0416C70.1686 32.1897 60.8574 22.582 49.3714 22.582C37.8854 22.582 28.5742 32.1897 28.5742 44.0416Z" fill="#FFC800"/>
        <path d="M28.2334 44.0415C28.2334 56.0713 37.6871 65.8417 49.3713 65.8417C61.0554 65.8417 70.5091 56.0713 70.5091 44.0415C70.5091 32.0116 61.0554 22.2412 49.3713 22.2412C37.6871 22.2412 28.2334 32.0116 28.2334 44.0415Z" stroke="white" stroke-opacity="0.3" stroke-width="0.68134"/>
    </g>
    <mask id="mask0_3613_515" style="mask-type:alpha" maskUnits="userSpaceOnUse" x="28" y="22" width="43" height="44">
        <path fill-rule="evenodd" clip-rule="evenodd" d="M28.5742 44.0409C28.5742 55.8927 37.8854 65.5005 49.3714 65.5005C60.8574 65.5005 70.1686 55.8927 70.1686 44.0409C70.1686 32.1891 60.8574 22.5813 49.3714 22.5813C37.8854 22.5813 28.5742 32.1891 28.5742 44.0409Z" fill="white"/>
    </mask>
    <g mask="url(#mask0_3613_515)">
        <path fill-rule="evenodd" clip-rule="evenodd" d="M28.5747 44.0419C28.5747 55.8937 37.8859 65.5014 49.3719 65.5014C60.8579 65.5014 70.1691 55.8937 70.1691 44.0419C70.1691 32.19 60.8579 22.5823 49.3719 22.5823C37.8859 22.5823 28.5747 32.19 28.5747 44.0419Z" fill="#FFC800"/>
        <path fill-rule="evenodd" clip-rule="evenodd" d="M64.5712 20.8647H33.7913V29.4486H64.5712V20.8647ZM33.7913 67.2173H64.5712V58.6335H33.7913V67.2173ZM26.3032 49.6212H72.4729V38.4622H26.3032V49.6212Z" fill="url(#paint0_linear_3613_515)"/>
    </g>
    <path d="M81.2637 35.248H95.1159C100.549 35.248 101.902 37.6377 101.902 39.7678V40.05C101.902 42.4397 99.8341 43.6472 98.408 43.8249C100.551 44.1325 102.846 45.4952 102.846 48.5507V48.8328C102.846 51.4285 101.291 54.357 95.1943 54.357H81.2665V35.248H81.2637ZM86.5199 39.229V42.6456H94.351C95.934 42.6456 96.4187 41.8754 96.4187 40.9754V40.9246C96.4187 39.9992 95.9088 39.229 94.351 39.229H86.5199ZM86.5199 46.3952V50.1701H94.76C96.6232 50.1701 97.1332 49.2194 97.1332 48.2432V48.1416C97.1332 47.1908 96.6232 46.3952 94.76 46.3952H86.5199Z" fill="black"/>
    <path d="M114.849 54.6957H113.905C106.914 54.6957 105.18 50.8417 105.18 47.4251V47.0668C105.18 43.8307 106.76 39.7961 113.471 39.7961H114.594C121.84 39.7961 123.14 43.8561 123.14 47.837V48.2997H110.257C110.487 49.9445 111.481 51.279 114.544 51.279C117.427 51.279 117.808 50.1731 117.912 49.9163H123.089C123.089 51.0731 122.17 54.6957 114.849 54.6957ZM110.307 45.6025H117.808C117.783 44.5501 117.298 43.0604 114.11 43.0604C111.507 43.0604 110.616 44.1128 110.307 45.6025Z" fill="black"/>
    <path d="M134.985 54.6957H134.041C127.051 54.6957 125.316 50.8417 125.316 47.4251V47.0668C125.316 43.8307 126.897 39.7961 133.607 39.7961H134.731C141.976 39.7961 143.276 43.8561 143.276 47.837V48.2997H130.393C130.623 49.9445 131.618 51.279 134.68 51.279C137.563 51.279 137.944 50.1731 138.048 49.9163H143.226C143.226 51.0731 142.307 54.6957 134.985 54.6957ZM130.444 45.6025H137.944C137.919 44.5501 137.434 43.0604 134.246 43.0604C131.643 43.0604 130.752 44.1128 130.444 45.6025Z" fill="black"/>
    <path d="M150.808 54.3628H145.832V34.9153H150.808V54.3628Z" fill="black"/>
    <path d="M158.846 38.5125H153.769V34.9153H158.846V38.5125ZM158.796 54.3628H153.819V40.1037H158.796V54.36V54.3628Z" fill="black"/>
    <path d="M161.622 40.1033H166.545V42.3632C167.131 41.593 169.07 39.7676 172.286 39.7676H172.541C176.674 39.7676 178.562 42.5946 178.562 45.1112V54.3596H173.586V46.9366C173.586 45.2918 172.642 43.7005 170.193 43.7005C167.744 43.7005 166.596 45.3708 166.596 47.1172V54.3624H161.62V40.1033H161.622Z" fill="black"/>
    <path d="M190.893 54.6957H189.949C182.958 54.6957 181.224 50.8417 181.224 47.4251V47.0668C181.224 43.8307 182.804 39.7961 189.515 39.7961H190.638C197.884 39.7961 199.184 43.8561 199.184 47.837V48.2997H186.301C186.531 49.9445 187.525 51.279 190.588 51.279C193.471 51.279 193.852 50.1731 193.956 49.9163H199.133C199.133 51.0731 198.214 54.6957 190.893 54.6957ZM186.351 45.6025H193.852C193.827 44.5501 193.342 43.0604 190.154 43.0604C187.551 43.0604 186.66 44.1128 186.351 45.6025Z" fill="black"/>
    <path d="M201.139 40.7243C198.357 40.7243 197.654 39.1951 197.654 37.9001V37.6885C197.654 36.481 198.293 34.8982 201.139 34.8982H201.557C204.395 34.8982 205 36.481 205 37.7111V37.9001C205 39.1951 204.132 40.7243 201.537 40.7243H201.142H201.139ZM201.369 39.971C203.809 39.971 204.129 38.7098 204.129 37.7336C204.129 36.8139 203.832 35.6515 201.369 35.6515H201.347C198.817 35.6515 198.553 36.7687 198.553 37.7985C198.553 38.8283 198.817 39.9682 201.347 39.9682H201.369V39.971ZM200.711 39.2967H199.579V36.306H202.041C202.932 36.306 203.185 36.639 203.185 37.0255V37.0706C203.185 37.4797 202.865 37.68 202.602 37.7252C203.03 37.8126 203.229 38.092 203.229 38.3995V38.9412C203.229 39.1076 203.241 39.1725 203.297 39.2402V39.2967H202.176C202.131 39.2515 202.078 39.1979 202.078 39.0428V38.7324C202.078 38.4333 201.991 38.312 201.705 38.312H200.716V39.2967H200.711ZM201.767 37.5587C202.008 37.5587 202.075 37.4374 202.075 37.2822C202.075 37.1158 202.008 36.9945 201.767 36.9945H200.711V37.5587H201.767Z" fill="black"/>
    <defs>
        <filter id="filter0_d_3613_515" x="0.638979" y="0.0977554" width="97.4642" height="98.7889" filterUnits="userSpaceOnUse" color-interpolation-filters="sRGB">
            <feFlood flood-opacity="0" result="BackgroundImageFix"/>
            <feColorMatrix in="SourceAlpha" type="matrix" values="0 0 0 0 0 0 0 0 0 0 0 0 0 0 0 0 0 0 127 0" result="hardAlpha"/>
            <feOffset dy="5.45072"/>
            <feGaussianBlur stdDeviation="13.6268"/>
            <feComposite in2="hardAlpha" operator="out"/>
            <feColorMatrix type="matrix" values="0 0 0 0 1 0 0 0 0 1 0 0 0 0 1 0 0 0 0.12 0"/>
            <feBlend mode="normal" in2="BackgroundImageFix" result="effect1_dropShadow_3613_515"/>
            <feBlend mode="normal" in="SourceGraphic" in2="effect1_dropShadow_3613_515" result="shape"/>
        </filter>
        <linearGradient id="paint0_linear_3613_515" x1="28.513" y1="43.3309" x2="70.2924" y2="43.3309" gradientUnits="userSpaceOnUse">
            <stop stop-color="#2B2B2B"/>
            <stop offset="0.152836" stop-color="#131313"/>
            <stop offset="0.745954" stop-color="#131313"/>
            <stop offset="1" stop-color="#1B1B1B"/>
        </linearGradient>
    </defs>
</svg>
